# xmcd
#
# Track frame offsets:
#	150
#	16250
#	30265
#	45622
#	58399
#	72912
#	84764
#	97269
#	109454
#	126988
#	145088
#	161145
#	176991
#	194973
#	208032
#
# Disc length: 3019 seconds
# Revision: 5
# Processed by: cddbd v1.5.2PL0 Copyright (c) Steve Scherf et al.
# Submitted via: dBpowerAMP V12.0
#
DISCID=e40bc90f
DTITLE=Linda Ronstadt - Duets
DYEAR=2014
DGENRE=Country
TTITLE0=Adieu False Heart
TTITLE1=I Can't Get Over You
TTITLE2=Walk Away Renee
TTITLE3=The New Partner Waltz
TTITLE4=I Never Will Marry
TTITLE5=Pretty Bird [With Laurie Lewis]
TTITLE6=I Can't Help It (If I'm Still in Love with You)
TTITLE7=Hasten Down the Wind
TTITLE8=Prisoner in Disguise
TTITLE9=I Think It's Gonna Work Out Fine
TTITLE10=I Don't Know Much
TTITLE11=All My Life
TTITLE12=Somewhere Out There
TTITLE13=Sisters
TTITLE14=Moonlight in Vermont
EXTD=
EXTT0=
EXTT1=
EXTT2=
EXTT3=
EXTT4=
EXTT5=
EXTT6=
EXTT7=
EXTT8=
EXTT9=
EXTT10=
EXTT11=
EXTT12=
EXTT13=
EXTT14=
PLAYORDER=
